{"title":"SENNA.HD.2010.720p[Hardcoded EngSubs]H.264.AC3.6Chan.1.4GB.Raven","uid":10756847,"size":1490506684,"categoryP":"video","categoryS":"hd___movies","magnet":"?xt=urn:btih:de6aac3a88c7084c3722e86f2af6aab54f1cfd86&amp;dn=SENNA.HD.2010.720p%5BHardcoded+EngSubs%5DH.264.AC3.6Chan.1.4GB.Raven&amp;tr=udp%3A%2F%2Ftracker.openbittorrent.com%3A80&amp;tr=udp%3A%2F%2Fopen.demonii.com%3A1337&amp;tr=udp%3A%2F%2Ftracker.coppersurfer.tk%3A6969&amp;tr=udp%3A%2F%2Fexodus.desync.com%3A6969","seeders":0,"leechers":1,"uploader":"Raven1969","files":1,"time":1407939916,"description":"SENNA.HD.2010.720p[Hardcoded EngSubs]H.264.AC3.6Chan.1.4GB.Raven.mkv\n\n\nI did this because it's the only version that's HD 720p with hardcoded English subs and is under 2GB. Perfect for a USB Stick.\n\n\nPlease comment on quality.\n\n\nPlease seed as long as possible, don't just grab and run.\n\n &lt;a href=&quot;\nhttp://www.imdb.com/title/tt1424432/?ref_=nv_sr_1&quot; rel=&quot;nofollow&quot; target=&quot;_NEW&quot;&gt;\nhttp://www.imdb.com/title/tt1424432/?ref_=nv_sr_1&lt;/a&gt;\n\n\nINFO\n\nFormat                                   : Matroska\nFormat version                           : Version 4 / Version 2\nFile size                                : 1.39 GiB\nDuration                                 : 1h 45mn\nOverall bit rate                         : 1 880 Kbps\n\nVideo\nID                                       : 1\nFormat                                   : AVC\nFormat/Info                              : Advanced Video Codec\nFormat profile                           : &lt;a class=&quot;__cf_email__&quot; href=&quot;/cdn-cgi/l/email-protection&quot; data-cfemail=&quot;a9e4c8c0c7e9e59d8798&quot;&gt;[email&amp;#160;protected]&lt;/a&gt;&lt;script cf-hash='f9e31' type=&quot;text/javascript&quot;&gt;\n/* &lt;![CDATA[ */!function(){try{var t=&quot;currentScript&quot;in document?document.currentScript:function(){for(var t=document.getElementsByTagName(&quot;script&quot;),e=t.length;e--;)if(t[e].getAttribute(&quot;cf-hash&quot;))return t[e]}();if(t&amp;&amp;t.previousSibling){var e,r,n,i,c=t.previousSibling,a=c.getAttribute(&quot;data-cfemail&quot;);if(a){for(e=&quot;&quot;,r=parseInt(a.substr(0,2),16),n=2;a.length-n;n+=2)i=parseInt(a.substr(n,2),16)^r,e+=String.fromCharCode(i);e=document.createTextNode(e),c.parentNode.replaceChild(e,c)}}}catch(u){}}();/* ]]&gt; */&lt;/script&gt;\nFormat settings, CABAC                   : Yes\nFormat settings, ReFrames                : 2 frames\nCodec ID                                 : V_MPEG4/ISO/AVC\nDuration                                 : 1h 45mn\nBit rate                                 : 1 500 Kbps\nWidth                                    : 1 280 pixels\nHeight                                   : 720 pixels\nDisplay aspect ratio                     : 16:9\nFrame rate mode                          : Constant\nFrame rate                               : 23.976 fps\nColor space                              : YUV\nChroma subsampling                       : 4:2:0\nBit depth                                : 8 bits\nScan type                                : Progressive\nBits/(Pixel*Frame)                       : 0.068\nStream size                              : 1.08 GiB (78%)\nWriting library                          : x264 core 142 r2409\n\nDefault                                  : Yes\nForced                                   : No\n\nAudio\nID                                       : 2\nFormat                                   : AC-3\nFormat/Info                              : Audio Coding 3\nMode extension                           : CM (complete main)\nFormat settings, Endianness              : Big\nCodec ID                                 : A_AC3\nDuration                                 : 1h 45mn\nBit rate mode                            : Constant\nBit rate                                 : 384 Kbps\nChannel(s)                               : 6 channels\nChannel positions                        : Front: L C R, Side: L R, LFE\nSampling rate                            : 48.0 KHz\nBit depth                                : 16 bits\nCompression mode                         : Lossy\nDelay relative to video                  : 1mn 5s\nStream size                              : 290 MiB (20%)\nDefault                                  : Yes\nForced \n","torrent":{"xt":"urn:btih:de6aac3a88c7084c3722e86f2af6aab54f1cfd86","amp;dn":"SENNA.HD.2010.720p%5BHardcoded+EngSubs%5DH.264.AC3.6Chan.1.4GB.Raven","amp;tr":["udp%3A%2F%2Ftracker.openbittorrent.com%3A80","udp%3A%2F%2Fopen.demonii.com%3A1337","udp%3A%2F%2Ftracker.coppersurfer.tk%3A6969","udp%3A%2F%2Fexodus.desync.com%3A6969"],"infoHash":"de6aac3a88c7084c3722e86f2af6aab54f1cfd86","infoHashBuffer":{"type":"Buffer","data":[222,106,172,58,136,199,8,76,55,34,232,111,42,246,170,181,79,28,253,134]},"announce":[],"urlList":[]}}